<svg xmlns="http://www.w3.org/2000/svg" version="1.1" xmlns:xlink="http://www.w3.org/1999/xlink" xmlns:svgjs="http://svgjs.dev/svgjs" width="1000" height="625" viewBox="0 0 1000 625"><g transform="matrix(1,0,0,1,0,0)"><svg viewBox="0 0 512 320" data-background-color="#282634" preserveAspectRatio="xMidYMid meet" height="625" width="1000" xmlns="http://www.w3.org/2000/svg" xmlns:xlink="http://www.w3.org/1999/xlink"><g id="tight-bounds" transform="matrix(1,0,0,1,0,0)"><svg viewBox="0 0 512 320" height="320" width="512"><g><svg></svg></g><g><svg viewBox="0 0 512 320" height="320" width="512"><g><path xmlns="http://www.w3.org/2000/svg" d="M152.026 320l-64.26-197.771 168.234-122.229 168.234 122.229-64.26 197.771z" fill="#ff4057" fill-rule="nonzero" stroke="none" stroke-width="1" stroke-linecap="butt" stroke-linejoin="miter" stroke-miterlimit="10" stroke-dasharray="" stroke-dashoffset="0" font-family="none" font-weight="none" font-size="none" text-anchor="none" style="mix-blend-mode: normal" data-fill-palette-color="tertiary"></path></g><g transform="matrix(1,0,0,1,211.4945054945055,80)"><svg viewBox="0 0 89.01098901098901 160" height="160" width="89.01098901098901"><g><svg viewBox="0 0 89.01098901098901 160" height="160" width="89.01098901098901"><g><svg viewBox="0 0 89.01098901098901 160" height="160" width="89.01098901098901"><g><svg viewBox="0 0 89.01098901098901 160" height="160" width="89.01098901098901"><g id="textblocktransform"><svg viewBox="0 0 89.01098901098901 160" height="160" width="89.01098901098901" id="textblock"><g><svg viewBox="0 0 89.01098901098901 160" height="160" width="89.01098901098901"><g transform="matrix(1,0,0,1,0,0)"><svg width="89.01098901098901" viewBox="2.8600001335144043 -35.54999923706055 19.76999855041504 35.54999923706055" height="160" data-palette-color="#282634"><path d="M10.03-35.55L10.03-5.96 22.63-5.96 22.63 0 2.86 0 2.86-35.55 10.03-35.55Z" opacity="1" transform="matrix(1,0,0,1,0,0)" fill="#282634" class="wordmark-text-0" data-fill-palette-color="quaternary" id="text-0"></path></svg></g></svg></g></svg></g></svg></g><g></g></svg></g></svg></g></svg></g></svg></g><defs></defs></svg><rect width="512" height="320" fill="none" stroke="none" visibility="hidden"></rect></g></svg></g></svg>
